<svg xmlns="http://www.w3.org/2000/svg" width="32" height="32" viewBox="0 0 32 32">
    <!-- Trunk (Stationary) -->
    <rect x="12" y="16" width="8" height="16" fill="#8B4513" />
    <rect x="18" y="16" width="2" height="16" fill="#654321" />
    
    <!-- Leaves (Shifted Right +1) -->
    <!-- Leaves Main Block -->
    <rect x="5" y="4" width="24" height="16" fill="#27ae60" />
    <!-- Leaves Top -->
    <rect x="9" y="0" width="16" height="4" fill="#27ae60" />
    <!-- Leaves Side L -->
    <rect x="3" y="8" width="2" height="8" fill="#27ae60" />
    <!-- Leaves Side R -->
    <rect x="29" y="8" width="2" height="8" fill="#27ae60" />

    <!-- Leaves Shadow (Bottom/Right) -->
    <rect x="5" y="18" width="24" height="2" fill="#1e8449" />
    <rect x="27" y="4" width="2" height="16" fill="#1e8449" />
    <rect x="29" y="14" width="2" height="2" fill="#1e8449" />

    <!-- Leaves Highlight (Top/Left) -->
    <rect x="5" y="4" width="2" height="14" fill="#2ecc71" />
    <rect x="5" y="4" width="22" height="2" fill="#2ecc71" />
    <rect x="9" y="0" width="16" height="2" fill="#2ecc71" />
    <rect x="3" y="8" width="2" height="2" fill="#2ecc71" />

    <!-- Details (Apples/Texture) -->
    <rect x="11" y="8" width="2" height="2" fill="#c0392b" />
    <rect x="21" y="12" width="2" height="2" fill="#c0392b" />
    <rect x="15" y="6" width="2" height="2" fill="#1e8449" />
</svg>