<svg xmlns="http://www.w3.org/2000/svg" width="32" height="32" viewBox="0 0 32 32">
    <rect x="14" y="24" width="4" height="8" fill="#5D4037" />
    <rect x="4" y="20" width="24" height="6" fill="#145A32" />
    <rect x="6" y="18" width="20" height="2" fill="#145A32" />
    <!-- Middle shifted right 1px -->
    <rect x="7" y="14" width="20" height="6" fill="#145A32" />
    <rect x="9" y="12" width="16" height="2" fill="#145A32" />
    <!-- Top shifted right 2px -->
    <rect x="12" y="8" width="12" height="6" fill="#145A32" />
    <rect x="14" y="4" width="8" height="4" fill="#145A32" />
    <rect x="16" y="2" width="4" height="2" fill="#145A32" />
    
    <rect x="4" y="20" width="2" height="6" fill="#1E8449" />
    <rect x="7" y="14" width="2" height="6" fill="#1E8449" />
    <rect x="12" y="8" width="2" height="6" fill="#1E8449" />
    
    <rect x="26" y="20" width="2" height="6" fill="#0B3B24" />
    <rect x="25" y="14" width="2" height="6" fill="#0B3B24" />
    <rect x="22" y="8" width="2" height="6" fill="#0B3B24" />

    <!-- Grass Base -->
    <rect x="12" y="30" width="2" height="2" fill="#2ecc71" />
    <rect x="14" y="28" width="2" height="4" fill="#2ecc71" />
    <rect x="16" y="28" width="2" height="4" fill="#2ecc71" />
    <rect x="18" y="30" width="2" height="2" fill="#2ecc71" />
</svg>